<svg xmlns="http://www.w3.org/2000/svg" viewBox="0 0 105 103"><defs><style>.cls-1{fill:#181e25;}.cls-2{fill:none;stroke:#2680eb;stroke-miterlimit:10;stroke-width:7px;}.cls-3{fill:#e6ebed;}</style></defs><title>tg</title><g id="Layer_2" data-name="Layer 2"><g id="Layer_1-2" data-name="Layer 1"><rect class="cls-1" x="3.5" y="3.5" width="98" height="96" rx="19.9" ry="19.9"/><rect class="cls-2" x="3.5" y="3.5" width="98" height="96" rx="19.9" ry="19.9"/><path class="cls-3" d="M36.54,36H24.06c-.31,0-.43-.19-.37-.5l.8-5.71c.06-.37.19-.49.55-.49H55.58c.37,0,.56.12.62.55l.55,5.59c.06.37-.12.56-.43.56H43.91V69.14c0,.36-.19.55-.49.55H37.09c-.43.06-.55-.12-.55-.55Z"/><path class="cls-3" d="M69.72,63.24c8.42.43,12,3.75,12,8.78,0,6.27-6.14,11.31-15.73,11.31-9.89,0-14.38-5-14.38-9.46,0-2,1.66-4.49,5.72-8a7.63,7.63,0,0,1-1.29-4.61,7.74,7.74,0,0,1,1.1-4,9,9,0,0,1-4.24-8c0-5.9,4.49-10.51,12.23-10.51a31.57,31.57,0,0,1,5.41.43A7.05,7.05,0,0,0,72,39.4h8.54c.31,0,.37.12.37.36v5c0,.25-.06.37-.37.37a44.66,44.66,0,0,1-4.73-.3,7.9,7.9,0,0,1,1.35,4.67c0,6.57-5.22,9.89-11.86,9.89a15.65,15.65,0,0,1-2.45-.19,3.8,3.8,0,0,0-.19,1.85,3.45,3.45,0,0,0,.8,1.9Zm-8.3,6c-1.78,1.23-3,3.19-3,4.11,0,2.16,3,4.55,8,4.55,5.84,0,8.42-2.39,8.42-4.73,0-2.7-3.07-3.44-6.82-3.63Zm-1.23-20a4.6,4.6,0,0,0,5,4.91c3.07,0,4.92-1.78,4.92-4.79s-1.48-5.16-4.92-5.16C62.1,44.13,60.19,46,60.19,49.17Z"/></g></g></svg>